PathFileType  4	(X/Y/Z) C:\Users\antoi\Documents\MyRepositories\mobilecap\ResultsAnalysis
DataRate	CameraRate	NumFrames	NumMarkers	Units	OrigDataRate	OrigDataStartFrame	OrigNumFrames
100.0	100.0	4	51	mm	100.0	1	150
Frame#	Time	r_knee			r_shank_antsup			r_ankle			r_calc			r_5meta			r_toe			L_knee			L_shank_antsup			L_ankle			L_calc			L_5meta			L_toe			r_sh2			r_sh3			r_sh4			L_sh2			L_sh3			r_thigh1			r_thigh2			r_thigh3			r_thigh4			r_thigh5			L_thigh1			L_thigh2			L_thigh3			L_thigh4			r.ASIS			r.PSIS			L.ASIS			L.PSIS			C7			R_Shoulder			L_Shoulder			R_Sternum			L_Sternum			R_humerus			R_elbow_med			R_elbow_lat			R_forearm			R_wrist_radius			R_wrist_ulna			L_humerus			L_elbow_med			L_elbow_lat			L_forearm			L_wrist_radius			L_wrist_ulna			R_HJC			L_HJC			R_HJC_reg			L_HJC_reg			
		X1	Y1	Z1	X2	Y2	Z2	X3	Y3	Z3	X4	Y4	Z4	X5	Y5	Z5	X6	Y6	Z6	X7	Y7	Z7	X8	Y8	Z8	X9	Y9	Z9	X10	Y10	Z10	X11	Y11	Z11	X12	Y12	Z12	X13	Y13	Z13	X14	Y14	Z14	X15	Y15	Z15	X16	Y16	Z16	X17	Y17	Z17	X18	Y18	Z18	X19	Y19	Z19	X20	Y20	Z20	X21	Y21	Z21	X22	Y22	Z22	X23	Y23	Z23	X24	Y24	Z24	X25	Y25	Z25	X26	Y26	Z26	X27	Y27	Z27	X28	Y28	Z28	X29	Y29	Z29	X30	Y30	Z30	X31	Y31	Z31	X32	Y32	Z32	X33	Y33	Z33	X34	Y34	Z34	X35	Y35	Z35	X36	Y36	Z36	X37	Y37	Z37	X38	Y38	Z38	X39	Y39	Z39	X40	Y40	Z40	X41	Y41	Z41	X42	Y42	Z42	X43	Y43	Z43	X44	Y44	Z44	X45	Y45	Z45	X46	Y46	Z46	X47	Y47	Z47	X48	Y48	Z48	X49	Y49	Z49	X50	Y50	Z50	X51	Y51	Z51	

1	0.00000000	-8.53307	530.70630	-43.07229	38.11313	467.84018	-35.40865	113.67590	110.83085	-52.02310	70.60494	44.67045	-94.01265	277.66712	86.52962	-34.22935	293.61303	124.96711	-92.47225	-248.84400	515.24776	-326.30301	-259.22274	389.82429	-328.76927	-430.87103	107.88768	-297.07597	-510.69260	69.14424	-263.77233	-285.27761	29.85292	-327.98814	-269.78061	51.94035	-260.70294	77.45568	361.30388	-27.26537	-29.29939	444.54024	-7.76260	-0.54676	333.51900	-10.63858	-338.77820	430.10782	-350.33536	-382.53038	317.11738	-346.85468	-39.43691	849.99084	-21.87555	1.68446	749.12069	-35.09770	-36.96016	703.48706	0.71905	-141.08151	803.14975	-6.83010	-92.20901	698.02744	-9.29411	-122.98864	827.42189	-361.83253	-133.50229	691.30568	-348.22985	-240.72347	835.07927	-365.23542	-244.27703	694.68646	-356.34340	-64.80389	1028.51487	-70.13586	-263.98568	1071.71693	-134.66436	-79.57869	1015.73495	-329.19358	-269.30204	1073.40953	-237.73740	-231.05083	1580.31446	-229.71628	-186.03759	1545.73603	-52.65963	-161.34792	1559.38320	-369.42454	-79.31685	1508.22799	-183.30768	-73.34602	1506.78666	-238.26557	-249.05256	1286.84626	43.46419	-287.18713	1194.61579	-27.40430	-285.49299	1204.07054	55.35001	-215.93394	1058.86850	84.50484	-169.92863	953.41995	85.45335	-213.90682	950.38502	95.70394	-84.66649	1336.46834	-495.18356	-100.59707	1218.29739	-463.51422	-68.20405	1249.99090	-521.14254	91.98720	1179.00758	-506.50498	180.50177	1145.94033	-476.90112	166.46226	1116.78421	-501.60432	-153.86488	952.89450	-67.51775	-167.08229	944.59432	-297.35560	-142.92727	945.96422	-104.09891	-151.75822	948.77608	-275.31167	
2	0.01000000	2.56222	530.19084	-43.41518	48.98075	465.76170	-35.47454	117.25738	108.29334	-52.39853	72.44345	44.70395	-94.52361	280.23315	79.24227	-33.82267	298.01303	117.52758	-91.53804	-237.32034	514.19086	-325.95518	-250.69087	388.75911	-328.79005	-428.86236	110.98346	-296.91693	-509.47077	73.98227	-263.47714	-285.23487	29.73833	-328.04369	-269.68143	51.79441	-260.64657	85.74595	358.54895	-27.64897	-19.16580	443.97945	-8.30125	7.31351	332.27561	-11.19946	-329.12584	430.85300	-350.13440	-375.84052	319.22966	-346.34541	-26.00218	849.94080	-20.85138	14.96273	749.25334	-34.63766	-23.84880	703.19841	0.35665	-127.85753	802.95577	-6.09721	-79.07795	697.77880	-9.56738	-111.18345	826.28589	-360.43331	-121.73984	690.25488	-347.25584	-228.84421	833.76986	-363.64900	-232.29376	693.36891	-354.86985	-52.11892	1028.35274	-69.11193	-251.60360	1070.65156	-133.15936	-67.40177	1014.55495	-328.28171	-257.19725	1071.94687	-236.16806	-220.07144	1579.41862	-226.85184	-174.83233	1543.96663	-50.02928	-150.58210	1559.55215	-366.63253	-68.09522	1507.35039	-180.91118	-62.31626	1505.93727	-235.95357	-237.26284	1284.53823	45.14549	-275.28380	1192.50747	-26.17452	-273.50136	1201.66640	56.70443	-203.75034	1056.49202	85.54321	-157.62860	951.08543	86.29845	-201.61637	948.00216	96.47841	-75.87406	1336.22705	-493.34759	-92.57921	1217.95803	-461.80052	-60.56778	1249.70922	-519.68075	100.13495	1178.50552	-504.05309	188.35284	1145.49874	-473.88073	174.79545	1116.09417	-498.73822	-140.83183	952.42130	-65.98687	-154.69749	943.27157	-295.75160	-130.00845	945.35595	-102.59589	-139.31332	947.50825	-273.92312	
3	0.02000000	13.60519	529.73032	-43.68523	59.71170	463.83654	-35.49957	120.83727	105.96791	-52.73301	74.29346	44.98092	-95.01014	282.72943	72.17966	-33.52475	302.36704	110.25817	-90.73753	-225.48507	513.19698	-325.66106	-241.91051	387.81013	-328.84033	-426.64421	114.30927	-296.75270	-508.03925	79.19563	-263.14202	-285.20011	29.60660	-328.09823	-269.55506	51.62187	-260.60511	94.02356	355.99334	-27.99218	-9.12230	443.47690	-8.85412	15.18394	331.14290	-11.82834	-319.22571	431.73046	-349.92860	-368.89823	321.51628	-345.81965	-12.75236	849.91502	-19.66493	28.03216	749.35206	-34.01827	-11.00634	702.92097	0.13129	-114.84991	802.84436	-5.35948	-66.22760	697.60324	-9.75117	-99.23399	825.23155	-359.03672	-109.75677	689.27988	-346.35246	-216.83879	832.52822	-361.98939	-220.11221	692.10828	-353.40347	-39.37273	1028.29999	-68.07144	-239.16373	1069.71938	-131.62948	-55.15039	1013.45851	-327.30516	-245.03134	1070.57837	-234.59225	-209.06958	1578.62933	-223.97015	-163.59278	1542.29391	-47.38764	-139.79685	1559.79292	-363.83608	-56.86459	1506.53820	-178.51664	-51.25414	1505.19284	-233.63003	-225.43756	1282.33549	46.83861	-263.34772	1190.50834	-24.91159	-261.46311	1199.36188	58.09023	-191.55737	1054.21031	86.60820	-145.33321	948.83609	87.15902	-189.32657	945.70873	97.27680	-67.10829	1336.02345	-491.45411	-84.65861	1217.67500	-460.01827	-52.91197	1249.44455	-518.11629	108.13372	1177.89658	-501.57298	196.05056	1144.86436	-470.83857	182.87280	1115.26621	-495.86825	-127.74957	952.07289	-64.41365	-142.24765	942.03850	-294.10278	-117.04254	944.91278	-101.04185	-126.81183	946.34059	-272.45172	
4	0.03000000	24.57976	529.40237	-43.82378	70.23924	462.20345	-35.45322	124.38558	104.00943	-52.99647	76.14768	45.64677	-95.44807	285.09424	65.54950	-33.41415	306.59850	103.32019	-90.18786	-213.06607	512.31964	-325.45854	-232.64914	387.07594	-328.94822	-424.02368	118.06720	-296.57460	-506.19922	85.11241	-262.72360	-285.17708	29.44721	-328.14707	-269.36754	51.38984	-260.59501	102.29759	353.80270	-28.25725	0.80511	443.11801	-9.38874	23.08938	330.23948	-12.51336	-308.83752	432.85756	-349.70159	-361.46565	324.12629	-345.26399	0.19126	849.95506	-18.20735	40.74780	749.42245	-33.12946	1.38704	702.69642	0.15429	-102.20091	802.90306	-4.60320	-53.84100	697.57352	-9.76499	-87.01301	824.33248	-357.63874	-97.34745	688.44532	-345.56362	-204.58387	831.39974	-360.21214	-207.54538	690.94577	-351.95468	-26.53896	1028.45400	-66.99290	-226.63414	1069.03659	-130.07364	-42.76278	1012.52063	-326.20972	-232.76540	1069.38643	-233.02197	-198.02851	1578.03900	-221.06398	-152.29299	1540.80421	-44.72709	-128.97819	1560.17164	-361.03524	-45.61948	1505.86373	-176.12517	-40.13589	1504.64967	-231.28745	-213.53866	1280.33176	48.55617	-251.34241	1188.70713	-23.58613	-249.33754	1197.24716	59.53270	-179.34343	1052.10562	87.72105	-133.04244	946.74826	88.04833	-177.03377	943.58366	98.11842	-58.38781	1335.89375	-489.45663	-76.91331	1217.49989	-458.11057	-45.24021	1249.21922	-516.37339	115.86435	1177.09657	-499.03954	203.46546	1143.87936	-467.75785	190.49880	1114.18751	-492.98087	-114.60277	951.95942	-62.76769	-129.68111	940.97453	-292.37786	-104.00751	944.77817	-99.39033	-114.21727	945.36040	-270.82838	
